<svg xmlns="http://www.w3.org/2000/svg" viewBox="0 0 1024 1024">
  <circle cx="512" cy="512" r="512" style="fill:#b41d23" />
  <path style="fill:#fff" d="m 525.48843,331.00509 c 0,-41.09465 33.31759,-74.41552 74.40401,-74.41552 41.0952,0 74.39415,33.32087 74.39415,74.41552 0,41.08917 -33.29895,74.41005 -74.39415,74.41005 -41.08642,0 -74.40401,-33.32088 -74.40401,-74.41005 v 0" />
  <path style="fill:#fff" d="m 420.42296,384.12662 c -29.3386,0 -53.11549,-23.78074 -53.11549,-53.12153 0,-29.34079 23.77689,-53.12262 53.11549,-53.12262 29.3556,0 53.1281,23.78183 53.1281,53.12262 0,29.34079 -23.7725,53.12153 -53.1281,53.12153 z m 0,-127.53705 c -41.08204,0 -74.39524,33.32087 -74.39524,74.39908 0,41.10561 33.3132,74.42429 74.39524,74.42429 41.09739,0 74.4084,-33.31868 74.4084,-74.42429 0,-41.07821 -33.31101,-74.39908 -74.4084,-74.39908" />
  <path style="fill:#fff" d="m 525.48843,693.00861 c 0,-41.093 33.31759,-74.41443 74.40401,-74.41443 41.0952,0 74.39415,33.32143 74.39415,74.41443 0,41.08643 -33.29895,74.40182 -74.39415,74.40182 -41.08642,0 -74.40401,-33.31539 -74.40401,-74.40182 v 0" />
  <path style="fill:#fff" d="m 420.42296,746.12794 c -29.3386,0 -53.11549,-23.78073 -53.11549,-53.11933 0,-29.34298 23.77689,-53.12372 53.11549,-53.12372 29.3556,0 53.1281,23.78074 53.1281,53.12372 0,29.3386 -23.7725,53.11933 -53.1281,53.11933 z m 0,-127.53376 c -41.08204,0 -74.39524,33.32143 -74.39524,74.39524 0,41.10123 33.3132,74.42101 74.39524,74.42101 41.09739,0 74.4084,-33.31978 74.4084,-74.42101 0,-41.07381 -33.31101,-74.39524 -74.4084,-74.39524" />
  <path style="fill:#fff" d="m 525.48843,512.00356 c 0,-41.09739 33.31759,-74.40401 74.40401,-74.40401 41.0952,0 74.39415,33.30662 74.39415,74.40401 0,41.09739 -33.29895,74.40402 -74.39415,74.40402 -41.08642,0 -74.40401,-33.30663 -74.40401,-74.40402 v 0" />
  <path style="fill:#fff" d="m 705.29397,331.00509 c 0,-41.09465 33.30991,-74.41552 74.39908,-74.41552 41.08917,0 74.3936,33.32087 74.3936,74.41552 0,41.08917 -33.30443,74.41005 -74.3936,74.41005 -41.08917,0 -74.39908,-33.32088 -74.39908,-74.41005 v 0" />
  <path style="fill:#fff" d="m 243.91497,384.12662 c -29.33805,0 -53.12152,-23.78074 -53.12152,-53.12153 0,-29.34079 23.78347,-53.12262 53.12152,-53.12262 29.34682,0 53.1281,23.78183 53.1281,53.12262 0,29.34079 -23.78128,53.12153 -53.1281,53.12153 z m 0,-127.53705 c -41.07985,0 -74.40182,33.32087 -74.40182,74.41552 0,41.08917 33.32197,74.40785 74.40182,74.40785 41.09959,0 74.41059,-33.31868 74.41059,-74.40785 0,-41.09465 -33.311,-74.41552 -74.41059,-74.41552" />
  <path style="fill:#fff" d="m 780.0768,565.14263 c -29.3353,0 -53.12262,-23.79225 -53.12262,-53.13907 0,-29.34298 23.78732,-53.13906 53.12262,-53.13906 29.34628,0 53.13359,23.79608 53.13359,53.13906 0,29.34682 -23.78731,53.13907 -53.13359,53.13907 z m 0,-127.54089 c -41.0782,0 -74.40456,33.30443 -74.40456,74.40182 0,41.09739 33.32636,74.40402 74.40456,74.40402 41.10014,0 74.41005,-33.30663 74.41005,-74.40402 0,-41.09739 -33.30991,-74.40182 -74.41005,-74.40182" />
</svg>
